Coordinates
version=1
nRows=17
nColumns=40
inDegrees=yes

Units are S.I. units (second, meters, Newtons, ...)
If the header above contains a line with 'inDegrees', this indicates whether rotational values are in degrees (yes) or radians (no).

endheader
time	pelvis_tilt	pelvis_list	pelvis_rotation	pelvis_tx	pelvis_ty	pelvis_tz	hip_flexion_r	hip_adduction_r	hip_rotation_r	knee_angle_r	knee_angle_r_beta	ankle_angle_r	subtalar_angle_r	mtp_angle_r	hip_flexion_l	hip_adduction_l	hip_rotation_l	knee_angle_l	knee_angle_l_beta	ankle_angle_l	subtalar_angle_l	mtp_angle_l	lumbar_extension	lumbar_bending	lumbar_rotation	arm_flex_r	arm_add_r	arm_rot_r	elbow_flex_r	pro_sup_r	wrist_flex_r	wrist_dev_r	arm_flex_l	arm_add_l	arm_rot_l	elbow_flex_l	pro_sup_l	wrist_flex_l	wrist_dev_l
      7.32500000	     88.22832648	     51.45591549	     88.37083308	      0.39742616	      0.59701112	      0.79758951	     70.41267919	    -10.05105351	     -5.50389592	     25.62822144	      0.44729685	     -5.84383903	      0.00000000	      0.00000000	     68.56125368	    -15.76759430	    -13.20319270	     25.83194309	      0.45085246	     -3.46461958	      0.00000000	      0.00000000	    -43.82456492	     -7.80412067	     -3.65511638	     64.35686497	      2.44771555	      4.42466980	      9.95857693	     32.39051193	      0.00000000	      0.00000000	     65.15041380	     -3.50729572	    -30.92029913	     16.61224511	     33.96411144	      0.00000000	      0.00000000
      7.33000000	     88.35606859	     51.42189197	     88.40518630	      0.39739463	      0.59707078	      0.79803978	     70.31514441	    -10.13357505	     -5.66819878	     25.47912224	      0.44469457	     -5.86209169	      0.00000000	      0.00000000	     68.46842972	    -15.61017745	    -12.97033583	     25.50055082	      0.44506857	     -3.63083237	      0.00000000	      0.00000000	    -43.59835153	     -7.67762428	     -3.65544021	     63.86189647	      2.35635599	      4.39676024	     10.44351108	     32.80660195	      0.00000000	      0.00000000	     64.72168189	     -3.62866176	    -29.64499415	     16.72185443	     34.32076857	      0.00000000	      0.00000000
      7.33500000	     88.25896175	     51.71243036	     88.41501158	      0.39697181	      0.59753512	      0.79902322	     69.94806529	    -10.10299118	     -5.73251561	     25.38937491	      0.44312819	     -5.98617779	      0.00000000	      0.00000000	     68.01050260	    -15.68759930	    -13.29769642	     25.34994410	      0.44243999	     -3.77807433	      0.00000000	      0.00000000	    -43.73682635	     -7.83010266	     -3.58369413	     63.84621702	      2.35958081	      4.37547956	     10.16764790	     33.53265288	      0.00000000	      0.00000000	     64.16661508	     -3.78869742	    -27.69106217	     17.12575236	     34.98711961	      0.00000000	      0.00000000
      7.34000000	     88.27074736	     51.67936190	     88.35963723	      0.39677145	      0.59782877	      0.79954387	     69.83141299	    -10.01348360	     -5.69964264	     25.13832017	      0.43874646	     -6.11599367	      0.00000000	      0.00000000	     67.88079273	    -15.69858762	    -13.29454807	     25.08569133	      0.43782791	     -3.86100102	      0.00000000	      0.00000000	    -43.50532803	     -7.86267160	     -3.56300181	     63.84710065	      2.50343376	      4.41587230	      9.91347495	     31.85065431	      0.00000000	      0.00000000	     64.73060611	     -3.53182379	    -30.97868733	     16.53748061	     33.52557309	      0.00000000	      0.00000000
      7.34500000	     88.24660911	     51.84212701	     88.38704924	      0.39642160	      0.59818558	      0.80027026	     69.57680849	    -10.02558522	     -5.82977683	     25.04158242	      0.43705806	     -6.16436898	      0.00000000	      0.00000000	     67.56928980	    -15.68312724	    -13.36264972	     24.86721443	      0.43401477	     -4.04330927	      0.00000000	      0.00000000	    -43.49029708	     -7.90796762	     -3.56134913	     63.55673530	      2.48698572	      4.34644532	     10.07514698	     32.42240520	      0.00000000	      0.00000000	     64.19527963	     -3.69851090	    -29.45141067	     16.86493145	     34.02669269	      0.00000000	      0.00000000
      7.35000000	     88.23970477	     52.01863588	     88.38545173	      0.39608539	      0.59845225	      0.80099439	     69.31410634	    -10.02575823	     -5.93871462	     24.95062642	      0.43547058	     -6.19391230	      0.00000000	      0.00000000	     67.25615075	    -15.67020489	    -13.39455481	     24.67152372	      0.43059932	     -4.16815127	      0.00000000	      0.00000000	    -43.47797815	     -7.96031104	     -3.53209449	     63.28765645	      2.45856619	      4.31601558	     10.19354316	     33.11522525	      0.00000000	      0.00000000	     63.68862352	     -3.87153712	    -27.90199469	     17.12626588	     34.62054228	      0.00000000	      0.00000000
      7.35500000	     88.20227036	     52.11131268	     88.28877326	      0.39578206	      0.59895247	      0.80153862	     69.14309921	     -9.88506633	     -5.88913302	     24.80883047	      0.43299578	     -6.32629817	      0.00000000	      0.00000000	     67.02920917	    -15.78015695	    -13.51160012	     24.52496905	      0.42804146	     -4.21564992	      0.00000000	      0.00000000	    -43.35317897	     -8.09834753	     -3.43121301	     63.38367665	      2.57598003	      4.34595416	      9.62294083	     33.15656416	      0.00000000	      0.00000000	     63.41230561	     -3.84435072	    -28.08384006	     17.32044900	     34.69469732	      0.00000000	      0.00000000
      7.36000000	     88.17264449	     52.34594912	     88.26907940	      0.39538487	      0.59934379	      0.80229456	     68.81888641	     -9.83152493	     -5.89807351	     24.69626161	      0.43103108	     -6.38615399	      0.00000000	      0.00000000	     66.66626823	    -15.81364421	    -13.58323269	     24.38148220	      0.42553714	     -4.31938972	      0.00000000	      0.00000000	    -43.40010253	     -8.17725220	     -3.34446979	     63.14869651	      2.52224421	      4.30297665	      9.69473375	     33.72007911	      0.00000000	      0.00000000	     63.04744139	     -3.92779373	    -27.00090085	     17.48812448	     35.17915209	      0.00000000	      0.00000000
      7.36500000	     88.20432992	     52.59378549	     88.29127856	      0.39491217	      0.59943338	      0.80297135	     68.51918987	     -9.89673621	     -6.08351309	     24.72559649	      0.43154307	     -6.34263168	      0.00000000	      0.00000000	     66.34349099	    -15.78082631	    -13.60027594	     24.30844999	      0.42426249	     -4.32023649	      0.00000000	      0.00000000	    -43.43663758	     -8.15377258	     -3.29250567	     62.83114751	      2.42573852	      4.28829119	      9.88690643	     34.18229028	      0.00000000	      0.00000000	     62.73437805	     -3.90248594	    -26.22553714	     17.70099358	     35.57898219	      0.00000000	      0.00000000
      7.37000000	     88.19682037	     52.70169277	     88.25357344	      0.39454166	      0.59968496	      0.80343560	     68.34052978	     -9.83714794	     -6.07906628	     24.63193841	      0.42990843	     -6.40749911	      0.00000000	      0.00000000	     66.13465670	    -15.80391846	    -13.60389518	     24.18968811	      0.42218970	     -4.38025678	      0.00000000	      0.00000000	    -43.30906210	     -8.17899133	     -3.26287246	     62.71201035	      2.55904859	      4.02821862	      9.82450294	     32.58229780	      0.00000000	      0.00000000	     63.57482788	     -3.49453227	    -30.52249845	     16.79136524	     34.20962186	      0.00000000	      0.00000000
      7.37500000	     88.13987010	     53.04101114	     88.26314968	      0.39408438	      0.60000366	      0.80418800	     67.96010951	     -9.81336452	     -6.06630778	     24.62191417	      0.42973347	     -6.42145052	      0.00000000	      0.00000000	     65.71033296	    -15.84036606	    -13.75099520	     24.16910932	      0.42183053	     -4.35820856	      0.00000000	      0.00000000	    -43.45888690	     -8.26146615	     -3.18704883	     62.44308025	      2.46559557	      3.95410097	     10.00530958	     33.33626383	      0.00000000	      0.00000000	     62.98537574	     -3.67582417	    -28.46522022	     17.13718760	     34.86129483	      0.00000000	      0.00000000
      7.38000000	     88.15541565	     53.23488637	     88.26626073	      0.39367924	      0.60023190	      0.80467010	     67.73773012	     -9.82442491	     -6.15243246	     24.65401630	      0.43029376	     -6.36724529	      0.00000000	      0.00000000	     65.42659660	    -15.82663536	    -13.72136217	     24.06708319	      0.42004984	     -4.37208926	      0.00000000	      0.00000000	    -43.41786532	     -8.25263212	     -3.17685925	     62.31733643	      2.54601177	      4.02218503	      9.89912169	     32.10351316	      0.00000000	      0.00000000	     63.28273620	     -3.50736191	    -30.55959975	     16.77436338	     33.78823935	      0.00000000	      0.00000000
      7.38500000	     88.14893792	     53.61451015	     88.29264985	      0.39311675	      0.60044884	      0.80548697	     67.30358385	     -9.85148532	     -6.25956960	     24.66447129	      0.43047623	     -6.26500367	      0.00000000	      0.00000000	     64.93684651	    -15.80529620	    -13.79053073	     23.97636609	      0.41846653	     -4.33746976	      0.00000000	      0.00000000	    -43.59314607	     -8.27232249	     -3.17051560	     62.04376629	      2.53706512	      3.91223405	     10.03834607	     32.71961883	      0.00000000	      0.00000000	     62.74656754	     -3.66107450	    -28.92648967	     17.07544757	     34.33139933	      0.00000000	      0.00000000
      7.39000000	     88.13524270	     53.83234428	     88.29521525	      0.39280727	      0.60064597	      0.80597571	     67.05784073	     -9.82865029	     -6.21217812	     24.65249499	      0.43026721	     -6.25373174	      0.00000000	      0.00000000	     64.64985140	    -15.80657201	    -13.80881887	     23.92420652	      0.41755617	     -4.32603725	      0.00000000	      0.00000000	    -43.57033739	     -8.29154660	     -3.13386742	     61.99580514	      2.57964492	      3.91114170	      9.73327232	     33.13092389	      0.00000000	      0.00000000	     62.26720504	     -3.73495190	    -28.05210884	     17.37940509	     34.71441704	      0.00000000	      0.00000000
      7.39500000	     88.15548010	     54.10705640	     88.31578061	      0.39237092	      0.60087100	      0.80651421	     66.73242044	     -9.84266793	     -6.25292562	     24.65422663	      0.43029743	     -6.15023717	      0.00000000	      0.00000000	     64.29117048	    -15.78085743	    -13.82575327	     23.84212990	      0.41612367	     -4.28545913	      0.00000000	      0.00000000	    -43.61591762	     -8.27636634	     -3.10956228	     61.84548547	      2.61079482	      3.67516565	      9.67627157	     32.71345280	      0.00000000	      0.00000000	     62.30016315	     -3.65093349	    -28.88318601	     17.18709505	     34.36927621	      0.00000000	      0.00000000
      7.40000000	     88.19769902	     54.45805755	     88.36522120	      0.39189480	      0.60100394	      0.80716845	     66.36255872	     -9.92374421	     -6.40912085	     24.75416541	      0.43204169	     -6.03479988	      0.00000000	      0.00000000	     63.87533218	    -15.72615006	    -13.84103571	     23.78271013	      0.41508660	     -4.25951030	      0.00000000	      0.00000000	    -43.74477151	     -8.22208265	     -3.09232006	     61.38123991	      2.50159843	      3.65824610	     10.15151030	     33.26390099	      0.00000000	      0.00000000	     62.01729036	     -3.76925430	    -27.88194890	     17.15354097	     34.82030051	      0.00000000	      0.00000000
      7.40500000	     88.42346926	     54.54457735	     88.46198552	      0.39176612	      0.60076558	      0.80734304	     66.24486376	    -10.13503938	     -6.69208696	     24.85567699	      0.43381340	     -5.95386839	      0.00000000	      0.00000000	     63.77346366	    -15.46602475	    -13.35344950	     23.57230467	      0.41141433	     -4.35655669	      0.00000000	      0.00000000	    -43.56782703	     -7.93104577	     -3.10654443	     60.56648712	      2.27441606	      3.39649198	     11.12943878	     34.10441997	      0.00000000	      0.00000000	     61.23258296	     -3.88424862	    -26.00998746	     17.74628305	     35.51988818	      0.00000000	      0.00000000
